<svg xmlns="http://www.w3.org/2000/svg" version="1.1" xmlns:xlink="http://www.w3.org/1999/xlink" xmlns:svgjs="http://svgjs.dev/svgjs" viewBox="0 0 800 800"><circle r="8" cx="480" cy="463" fill="hsl(140, 100%, 80%)" opacity="0.34"></circle><circle r="8.5" cx="326" cy="655" fill="hsl(169, 100%, 80%)" opacity="0.50"></circle><circle r="10.5" cx="81" cy="756" fill="hsl(266, 100%, 80%)" opacity="0.94"></circle><circle r="10.5" cx="554" cy="117" fill="hsl(244, 100%, 80%)" opacity="0.45"></circle><circle r="9.5" cx="667" cy="177" fill="hsl(239, 100%, 80%)" opacity="0.31"></circle><circle r="9.5" cx="210" cy="727" fill="hsl(250, 100%, 80%)" opacity="0.71"></circle><circle r="10.5" cx="179" cy="371" fill="hsl(257, 100%, 80%)" opacity="0.33"></circle><circle r="10" cx="630" cy="741" fill="hsl(263, 100%, 80%)" opacity="0.13"></circle><circle r="8" cx="756" cy="464" fill="hsl(160, 100%, 80%)" opacity="0.70"></circle><circle r="9.5" cx="66" cy="564" fill="hsl(267, 100%, 80%)" opacity="0.17"></circle><circle r="10.5" cx="141" cy="667" fill="hsl(263, 100%, 80%)" opacity="0.96"></circle><circle r="10.5" cx="142" cy="608" fill="hsl(263, 100%, 80%)" opacity="0.12"></circle><circle r="7.5" cx="419" cy="451" fill="hsl(121, 100%, 80%)" opacity="0.89"></circle><circle r="6.5" cx="390" cy="615" fill="hsl(129, 100%, 80%)" opacity="0.17"></circle><circle r="11" cx="520" cy="24" fill="hsl(316, 100%, 80%)" opacity="0.38"></circle><circle r="9.5" cx="307" cy="782" fill="hsl(188, 100%, 80%)" opacity="0.69"></circle><circle r="10" cx="173" cy="727" fill="hsl(260, 100%, 80%)" opacity="0.50"></circle><circle r="7.5" cx="783" cy="665" fill="hsl(127, 100%, 80%)" opacity="0.11"></circle><circle r="10.5" cx="595" cy="556" fill="hsl(249, 100%, 80%)" opacity="0.42"></circle><circle r="7.5" cx="378" cy="261" fill="hsl(135, 100%, 80%)" opacity="0.87"></circle><circle r="10.5" cx="224" cy="197" fill="hsl(245, 100%, 80%)" opacity="0.66"></circle><circle r="8" cx="358" cy="434" fill="hsl(150, 100%, 80%)" opacity="0.98"></circle><circle r="9.5" cx="691" cy="749" fill="hsl(234, 100%, 80%)" opacity="0.91"></circle><circle r="10" cx="562" cy="534" fill="hsl(216, 100%, 80%)" opacity="0.48"></circle><circle r="10.5" cx="248" cy="167" fill="hsl(224, 100%, 80%)" opacity="0.29"></circle><circle r="10" cx="13" cy="650" fill="hsl(270, 100%, 80%)" opacity="0.38"></circle><circle r="10.5" cx="176" cy="668" fill="hsl(257, 100%, 80%)" opacity="0.83"></circle><circle r="8" cx="379" cy="140" fill="hsl(169, 100%, 80%)" opacity="0.31"></circle><circle r="10" cx="562" cy="177" fill="hsl(218, 100%, 80%)" opacity="0.42"></circle><circle r="10.5" cx="633" cy="177" fill="hsl(253, 100%, 80%)" opacity="0.34"></circle><circle r="9" cx="310" cy="114" fill="hsl(189, 100%, 80%)" opacity="0.21"></circle><circle r="7.5" cx="693" cy="104" fill="hsl(146, 100%, 80%)" opacity="0.78"></circle><circle r="8.5" cx="519" cy="658" fill="hsl(175, 100%, 80%)" opacity="0.88"></circle><circle r="7.5" cx="359" cy="637" fill="hsl(150, 100%, 80%)" opacity="0.16"></circle><circle r="12" cx="506" cy="60" fill="hsl(293, 100%, 80%)" opacity="0.27"></circle><circle r="9.5" cx="225" cy="421" fill="hsl(239, 100%, 80%)" opacity="0.27"></circle><circle r="9.5" cx="345" cy="119" fill="hsl(185, 100%, 80%)" opacity="0.53"></circle><circle r="8" cx="249" cy="18" fill="hsl(159, 100%, 80%)" opacity="0.25"></circle><circle r="10.5" cx="156" cy="697" fill="hsl(262, 100%, 80%)" opacity="0.86"></circle><circle r="11.5" cx="689" cy="209" fill="hsl(234, 100%, 80%)" opacity="0.71"></circle><circle r="10" cx="381" cy="18" fill="hsl(218, 100%, 80%)" opacity="0.88"></circle><circle r="11" cx="596" cy="481" fill="hsl(249, 100%, 80%)" opacity="0.28"></circle><circle r="10.5" cx="50" cy="695" fill="hsl(268, 100%, 80%)" opacity="0.48"></circle><circle r="11" cx="568" cy="83" fill="hsl(264, 100%, 80%)" opacity="0.26"></circle><circle r="10" cx="562" cy="571" fill="hsl(216, 100%, 80%)" opacity="0.45"></circle><circle r="8" cx="497" cy="527" fill="hsl(150, 100%, 80%)" opacity="0.66"></circle><circle r="11" cx="673" cy="684" fill="hsl(253, 100%, 80%)" opacity="0.62"></circle><circle r="10.5" cx="47" cy="527" fill="hsl(269, 100%, 80%)" opacity="0.34"></circle><circle r="10" cx="17" cy="53" fill="hsl(232, 100%, 80%)" opacity="0.56"></circle><circle r="10" cx="597" cy="236" fill="hsl(249, 100%, 80%)" opacity="0.79"></circle><circle r="10" cx="694" cy="247" fill="hsl(234, 100%, 80%)" opacity="0.72"></circle><circle r="11.5" cx="121" cy="121" fill="hsl(253, 100%, 80%)" opacity="0.23"></circle><circle r="8.5" cx="318" cy="283" fill="hsl(178, 100%, 80%)" opacity="0.53"></circle><circle r="9.5" cx="237" cy="546" fill="hsl(239, 100%, 80%)" opacity="0.71"></circle><circle r="11.5" cx="134" cy="154" fill="hsl(260, 100%, 80%)" opacity="0.17"></circle><circle r="10.5" cx="591" cy="114" fill="hsl(238, 100%, 80%)" opacity="0.65"></circle><circle r="8.5" cx="369" cy="78" fill="hsl(205, 100%, 80%)" opacity="0.25"></circle><circle r="8" cx="487" cy="676" fill="hsl(140, 100%, 80%)" opacity="0.74"></circle><circle r="7.5" cx="362" cy="229" fill="hsl(150, 100%, 80%)" opacity="0.14"></circle><circle r="7" cx="784" cy="274" fill="hsl(127, 100%, 80%)" opacity="0.16"></circle><circle r="10.5" cx="211" cy="262" fill="hsl(250, 100%, 80%)" opacity="0.15"></circle><circle r="9.5" cx="15" cy="715" fill="hsl(270, 100%, 80%)" opacity="0.24"></circle><circle r="6.5" cx="411" cy="256" fill="hsl(124, 100%, 80%)" opacity="0.73"></circle><circle r="9" cx="521" cy="371" fill="hsl(175, 100%, 80%)" opacity="0.78"></circle><circle r="8" cx="674" cy="75" fill="hsl(169, 100%, 80%)" opacity="0.33"></circle><circle r="9" cx="745" cy="613" fill="hsl(177, 100%, 80%)" opacity="0.44"></circle><circle r="8" cx="480" cy="146" fill="hsl(190, 100%, 80%)" opacity="0.71"></circle><circle r="5.5" cx="745" cy="15" fill="hsl(72, 100%, 80%)" opacity="0.41"></circle><circle r="7" cx="433" cy="277" fill="hsl(120, 100%, 80%)" opacity="0.12"></circle><circle r="9.5" cx="213" cy="482" fill="hsl(245, 100%, 80%)" opacity="0.77"></circle><circle r="11.5" cx="174" cy="156" fill="hsl(251, 100%, 80%)" opacity="0.27"></circle><circle r="9.5" cx="658" cy="756" fill="hsl(259, 100%, 80%)" opacity="0.49"></circle><circle r="10" cx="723" cy="227" fill="hsl(208, 100%, 80%)" opacity="0.12"></circle><circle r="9.5" cx="725" cy="190" fill="hsl(208, 100%, 80%)" opacity="0.12"></circle><circle r="7.5" cx="402" cy="327" fill="hsl(124, 100%, 80%)" opacity="0.89"></circle><circle r="8.5" cx="276" cy="144" fill="hsl(198, 100%, 80%)" opacity="0.53"></circle><circle r="10" cx="684" cy="784" fill="hsl(244, 100%, 80%)" opacity="0.52"></circle><circle r="7.5" cx="364" cy="396" fill="hsl(142, 100%, 80%)" opacity="0.28"></circle><circle r="8" cx="752" cy="249" fill="hsl(160, 100%, 80%)" opacity="0.74"></circle><circle r="10.5" cx="589" cy="16" fill="hsl(282, 100%, 80%)" opacity="0.53"></circle><circle r="11.5" cx="19" cy="274" fill="hsl(270, 100%, 80%)" opacity="0.83"></circle><circle r="9" cx="252" cy="580" fill="hsl(224, 100%, 80%)" opacity="0.75"></circle><circle r="8" cx="342" cy="784" fill="hsl(159, 100%, 80%)" opacity="0.16"></circle><circle r="11" cx="121" cy="696" fill="hsl(264, 100%, 80%)" opacity="0.43"></circle><circle r="10" cx="406" cy="86" fill="hsl(224, 100%, 80%)" opacity="0.43"></circle><circle r="10.5" cx="103" cy="503" fill="hsl(265, 100%, 80%)" opacity="0.54"></circle><circle r="12.5" cx="17" cy="130" fill="hsl(279, 100%, 80%)" opacity="0.29"></circle><circle r="7.5" cx="754" cy="208" fill="hsl(160, 100%, 80%)" opacity="0.82"></circle><circle r="10.5" cx="614" cy="145" fill="hsl(232, 100%, 80%)" opacity="0.22"></circle><circle r="7" cx="314" cy="568" fill="hsl(178, 100%, 80%)" opacity="0.93"></circle><circle r="7" cx="783" cy="238" fill="hsl(127, 100%, 80%)" opacity="0.13"></circle><circle r="9.5" cx="284" cy="343" fill="hsl(207, 100%, 80%)" opacity="0.61"></circle><circle r="8.5" cx="755" cy="503" fill="hsl(160, 100%, 80%)" opacity="0.92"></circle><circle r="10.5" cx="652" cy="210" fill="hsl(259, 100%, 80%)" opacity="0.83"></circle><circle r="7.5" cx="723" cy="113" fill="hsl(125, 100%, 80%)" opacity="0.22"></circle><circle r="9.5" cx="306" cy="249" fill="hsl(188, 100%, 80%)" opacity="0.94"></circle><circle r="10" cx="583" cy="783" fill="hsl(240, 100%, 80%)" opacity="0.87"></circle><circle r="8" cx="505" cy="210" fill="hsl(162, 100%, 80%)" opacity="0.51"></circle><circle r="8.5" cx="329" cy="220" fill="hsl(169, 100%, 80%)" opacity="0.55"></circle><circle r="8.5" cx="489" cy="387" fill="hsl(150, 100%, 80%)" opacity="0.74"></circle><circle r="8.5" cx="330" cy="498" fill="hsl(169, 100%, 80%)" opacity="0.20"></circle><circle r="10.5" cx="564" cy="496" fill="hsl(228, 100%, 80%)" opacity="0.51"></circle><circle r="8.5" cx="492" cy="350" fill="hsl(150, 100%, 80%)" opacity="0.21"></circle><circle r="7.5" cx="460" cy="656" fill="hsl(125, 100%, 80%)" opacity="0.60"></circle><circle r="7" cx="451" cy="689" fill="hsl(125, 100%, 80%)" opacity="0.98"></circle><circle r="9.5" cx="568" cy="742" fill="hsl(228, 100%, 80%)" opacity="0.66"></circle><circle r="8" cx="755" cy="324" fill="hsl(160, 100%, 80%)" opacity="0.13"></circle><circle r="8.5" cx="314" cy="50" fill="hsl(183, 100%, 80%)" opacity="0.15"></circle><circle r="10.5" cx="201" cy="396" fill="hsl(250, 100%, 80%)" opacity="0.71"></circle><circle r="11" cx="143" cy="379" fill="hsl(263, 100%, 80%)" opacity="0.45"></circle><circle r="10" cx="542" cy="149" fill="hsl(226, 100%, 80%)" opacity="0.79"></circle><circle r="10.5" cx="80" cy="532" fill="hsl(266, 100%, 80%)" opacity="0.98"></circle><circle r="8.5" cx="493" cy="599" fill="hsl(150, 100%, 80%)" opacity="0.81"></circle><circle r="9" cx="298" cy="636" fill="hsl(197, 100%, 80%)" opacity="0.53"></circle><circle r="10.5" cx="622" cy="643" fill="hsl(261, 100%, 80%)" opacity="0.68"></circle><circle r="11" cx="258" cy="206" fill="hsl(224, 100%, 80%)" opacity="0.73"></circle></svg>