<svg xmlns="http://www.w3.org/2000/svg"  viewBox="0 0 64 64" width="64px" height="64px"><radialGradient id="BdEPlWJl0W3I9K_tG0hSOa" cx="32" cy="37.766" r="40.914" gradientTransform="matrix(1 0 0 -1 0 66)" gradientUnits="userSpaceOnUse"><stop offset="0" stop-color="#afeeff"/><stop offset=".193" stop-color="#bbf1ff"/><stop offset=".703" stop-color="#d7f8ff"/><stop offset="1" stop-color="#e1faff"/></radialGradient><path fill="url(#BdEPlWJl0W3I9K_tG0hSOa)" d="M57,18c0,1.1,0.9,2,2,2h1.5c1.6,0,2.85,1.52,2.41,3.18c-0.3,1.1-1.36,1.82-2.5,1.82H59	c-0.83,0-1.58,0.34-2.12,0.88C56.34,26.42,56,27.17,56,28c0,1.66,1.34,3,3,3h1.5c1.93,0,3.5,1.57,3.5,3.5S62.43,38,60.5,38H46	c-0.55,0-1.05,0.22-1.41,0.59C44.22,38.95,44,39.45,44,40c0,1.1,0.9,2,2,2h11c1.66,0,3,1.34,3,3s-1.34,3-3,3h-6.5	c-1.38,0-2.5,1.12-2.5,2.5s1.12,2.5,2.5,2.5H53c1.66,0,3,1.34,3,3s-1.34,3-3,3H9c-1.66,0-3-1.34-3-3s1.34-3,3-3h4.5	c1.38,0,2.5-1.12,2.5-2.5S14.88,48,13.5,48H4c-1.66,0-3-1.34-3-3s1.34-3,3-3h1.5C6.88,42,8,40.88,8,39.5S6.88,37,5.5,37h-3	C1.12,37,0,35.88,0,34.5S1.12,32,2.5,32H6c0.55,0,1.05-0.22,1.41-0.59C7.78,31.05,8,30.55,8,30c0-1.1-0.9-2-2-2H4	c-1.66,0-3-1.34-3-3s1.34-3,3-3h27c0.55,0,1.05-0.22,1.41-0.59C32.78,21.05,33,20.55,33,20c0-1.1-0.9-2-2-2H3c-1.65,0-3-1.35-3-3	s1.35-3,3-3h3.67c0.64,0,1.22-0.27,1.64-0.74C8.74,10.81,9,10.19,9,9.5C9,8.12,7.95,7,6.67,7H6.5C4.9,7,3.65,5.48,4.09,3.82	C4.39,2.72,5.45,2,6.59,2H56.5c1.6,0,2.85,1.52,2.41,3.18C58.61,6.28,57.55,7,56.41,7h0.09C55.67,7,55,7.67,55,8.5s0.67,1.5,1.5,1.5	h4.37c1.45,0,2.79,0.97,3.07,2.4C64.32,14.31,62.85,16,61,16h-2C57.9,16,57,16.9,57,18z"/><linearGradient id="BdEPlWJl0W3I9K_tG0hSOb" x1="32" x2="32" y1="-21.808" y2="25.429" gradientTransform="matrix(1 0 0 -1 0 66)" gradientUnits="userSpaceOnUse"><stop offset="0" stop-color="#f5cb63"/><stop offset=".076" stop-color="#f6cc6a"/><stop offset=".458" stop-color="#fdd088"/><stop offset=".672" stop-color="#ffd194"/><stop offset="1" stop-color="#ffd194"/></linearGradient><path fill="url(#BdEPlWJl0W3I9K_tG0hSOb)" d="M10,17.519C10,6.926,24.348,5,32,5s22,1.926,22,12.519C54,41.593,39.652,57,32,57	S10,41.593,10,17.519z"/><path fill="#717171" d="M28.885,19.221l-6.049-3l-0.21-0.104c-0.293-0.144-0.639-0.185-0.977-0.087l-6.914,1.99	c-0.424,0.122-0.735,0.511-0.734,0.971C14.002,19.549,14.458,20,15.021,20l6.4-0.009l5.662,2.808	c0.996,0.494,2.207,0.094,2.705-0.894C30.285,20.917,29.881,19.715,28.885,19.221z"/><path fill="#717171" d="M49.265,18.029l-6.914-1.99c-0.314-0.09-0.665-0.068-0.98,0.088l-0.207,0.103l-6.049,3	c-0.996,0.494-1.4,1.695-0.902,2.683s1.709,1.388,2.705,0.894L42.58,20l6.4,0.009c0.442,0,0.85-0.287,0.979-0.729	C50.116,18.745,49.805,18.185,49.265,18.029z"/><ellipse cx="22.5" cy="27.5" fill="#717171" rx="5.5" ry="2.5"/><ellipse cx="42.5" cy="27.5" fill="#717171" rx="5.5" ry="2.5"/><path fill="#717171" d="M28,49.534L28,49.534c0,0.238,0.058,0.473,0.171,0.686l0.812,1.541	c0.651,1.234,0.838,2.65,0.474,3.986c-0.301,1.108-0.17,2.282,0.369,3.304l1.278,2.424c0.369,0.699,1.42,0.699,1.789,0l1.278-2.425	c0.534-1.012,0.668-2.172,0.379-3.27l0,0c-0.356-1.35-0.191-2.775,0.465-4.02l0.813-1.541C35.942,50.007,36,49.772,36,49.534l0,0	C36,48.687,35.276,48,34.382,48h-4.764C28.724,48,28,48.687,28,49.534z"/><path fill="#717171" d="M45.64,39.48c-0.376-0.42-1.02-0.456-1.44-0.08L41.294,43h-3.466l-2.414-4.414	C35.053,38.226,34.55,38,34,38h-4c-0.51,0.001-1.025,0.197-1.414,0.586L26.172,43h-3.466L19.8,39.4	c-0.298-0.266-0.738-0.343-1.12-0.16c-0.508,0.243-0.723,0.852-0.48,1.36l2.2,4.6c0.227,0.472,0.71,0.8,1.27,0.8H22h5	c0.51-0.001,1.025-0.197,1.414-0.586L31,42h2l2.586,3.414C35.947,45.774,36.45,46,37,46h5h0.332c0.524-0.001,1.027-0.296,1.268-0.8	l2.2-4.6C45.972,40.24,45.923,39.796,45.64,39.48z"/><linearGradient id="BdEPlWJl0W3I9K_tG0hSOc" x1="45.5" x2="45.5" y1="-2.74" y2="51.137" gradientTransform="matrix(1 0 0 -1 0 66)" gradientUnits="userSpaceOnUse"><stop offset="0" stop-color="#ff634d"/><stop offset=".204" stop-color="#fe6464"/><stop offset=".521" stop-color="#fc6581"/><stop offset=".794" stop-color="#fa6694"/><stop offset=".989" stop-color="#fa669a"/><stop offset="1" stop-color="#fa669a"/></linearGradient><ellipse cx="45.5" cy="35" fill="url(#BdEPlWJl0W3I9K_tG0hSOc)" rx="3.5" ry="3"/><linearGradient id="BdEPlWJl0W3I9K_tG0hSOd" x1="18.5" x2="18.5" y1="-2.74" y2="51.137" gradientTransform="matrix(1 0 0 -1 0 66)" gradientUnits="userSpaceOnUse"><stop offset="0" stop-color="#ff634d"/><stop offset=".204" stop-color="#fe6464"/><stop offset=".521" stop-color="#fc6581"/><stop offset=".794" stop-color="#fa6694"/><stop offset=".989" stop-color="#fa669a"/><stop offset="1" stop-color="#fa669a"/></linearGradient><ellipse cx="18.5" cy="35" fill="url(#BdEPlWJl0W3I9K_tG0hSOd)" rx="3.5" ry="3"/></svg>