<svg xmlns="http://www.w3.org/2000/svg"  viewBox="0 0 64 64" width="64px" height="64px"><radialGradient id="xF1O28YGh78hwc5bkCpEAa" cx="31.873" cy="27.752" r="50.707" gradientTransform="matrix(1 0 0 -1 0 63.89)" gradientUnits="userSpaceOnUse"><stop offset="0" stop-color="#8deeff"/><stop offset=".28" stop-color="#a0f0ff"/><stop offset=".592" stop-color="#c8f7ff"/><stop offset="1" stop-color="#d6f9ff"/></radialGradient><path fill="url(#xF1O28YGh78hwc5bkCpEAa)" d="M61.5,20H59c-1.105,0-2-0.895-2-2s0.895-2,2-2h1c1.848,0,3.319-1.693,2.94-3.605	C62.657,10.972,61.32,10,59.869,10H52.5C51.672,10,51,9.328,51,8.5S51.672,7,52.5,7h3.912c1.139,0,2.202-0.721,2.497-1.821	C59.355,3.516,58.096,2,56.5,2h-51C4.119,2,3,3.119,3,4.5S4.119,7,5.5,7h3C9.881,7,11,8.119,11,9.5S9.881,12,8.5,12H7.588H5	c-1.65,0-3,1.35-3,3s1.35,3,3,3h21c0.352,0,0.685-0.073,1-0.185V30h-7.412c-1.139,0-2.202,1.721-2.497,2.821	c-0.219,0.817-0.024,1.595,0.418,2.179H2.5C1.119,35,0,36.119,0,37.5S1.119,40,2.5,40h1C4.881,40,6,41.119,6,42.5S4.881,45,3.5,45H3	c-1.657,0-3,1.343-3,3s1.343,3,3,3h6.5c1.381,0,2.5,1.119,2.5,2.5S10.881,56,9.5,56H8c-1.657,0-3,1.343-3,3s1.343,3,3,3h50	c1.657,0,3-1.343,3-3s-1.343-3-3-3h-2.5c-1.381,0-2.5-1.119-2.5-2.5s1.119-2.5,2.5-2.5h3c1.933,0,3.5-1.567,3.5-3.5	S60.433,44,58.5,44H48.412c1.138,0,2.202-0.721,2.497-1.821C51.355,40.516,50.096,39,48.5,39c-0.828,0-1.5-0.672-1.5-1.5	s0.672-1.5,1.5-1.5h2.912c1.139,0,2.202-0.721,2.497-1.821C54.355,32.516,53.096,30,51.5,30H51c-1.105,0-2-1.895-2-3s0.895-2,2-2	h10.412c1.139,0,2.202-0.721,2.497-1.821C64.355,21.516,63.096,20,61.5,20z"/><linearGradient id="xF1O28YGh78hwc5bkCpEAb" x1="9.328" x2="9.328" y1="59.306" y2="40.002" gradientTransform="matrix(1 0 0 -1 0 63.89)" gradientUnits="userSpaceOnUse"><stop offset="0" stop-color="#49dff4"/><stop offset=".244" stop-color="#44d8f1"/><stop offset=".587" stop-color="#34c6ea"/><stop offset=".988" stop-color="#1ca8dd"/><stop offset="1" stop-color="#1ba7dd"/></linearGradient><path fill="url(#xF1O28YGh78hwc5bkCpEAb)" d="M4.624,19.764	C6.829,18.415,9.806,15.777,11,11l4,14c0,0-6.246,0-10.181-1.712C3.349,22.649,3.257,20.601,4.624,19.764z"/><linearGradient id="xF1O28YGh78hwc5bkCpEAc" x1="-463.673" x2="-463.673" y1="59.306" y2="40.002" gradientTransform="rotate(180 -204.672 31.945)" gradientUnits="userSpaceOnUse"><stop offset="0" stop-color="#49dff4"/><stop offset=".244" stop-color="#44d8f1"/><stop offset=".587" stop-color="#34c6ea"/><stop offset=".988" stop-color="#1ca8dd"/><stop offset="1" stop-color="#1ba7dd"/></linearGradient><path fill="url(#xF1O28YGh78hwc5bkCpEAc)" d="M59.031,19.764	c-2.205-1.35-5.182-3.988-6.376-8.764l-4,14c0,0,6.246,0,10.181-1.712C60.306,22.649,60.398,20.601,59.031,19.764z"/><linearGradient id="xF1O28YGh78hwc5bkCpEAd" x1="32" x2="32" y1="417.809" y2="355.072" gradientTransform="translate(0 -335.78)" gradientUnits="userSpaceOnUse"><stop offset="0" stop-color="#ffc050"/><stop offset=".004" stop-color="#ffc050"/><stop offset=".641" stop-color="#ffbe75"/><stop offset="1" stop-color="#ffbd85"/><stop offset="1" stop-color="#ffbd85"/></linearGradient><path fill="url(#xF1O28YGh78hwc5bkCpEAd)" d="M14,20v19c0,5,3,9,8.085,13.967	C24,55,28,58,32,58s8-3,9.915-5.033C47,48,50,44.288,50,38.816V20l-13-6h-9L14,20z"/><path fill="#fff" d="M36.123,35.187c0.427-2.552,1.998-4.597,3.927-5.07c0.322-0.078,0.639-0.107,0.95-0.107V30h3.967	c0.55,0,1.031,0.574,1.033,1.307c0.001,0.49-0.038,0.994-0.123,1.504c-0.427,2.552-1.998,4.597-3.927,5.07	c-0.322,0.078-0.639,0.107-0.95,0.107V38h-3.967c-0.55,0-1.031-0.574-1.033-1.307C35.999,36.202,36.038,35.699,36.123,35.187z"/><path fill="#fff" d="M27.877,35.187c-0.427-2.552-1.998-4.597-3.927-5.07c-0.322-0.078-0.639-0.107-0.95-0.107V30h-3.967	c-0.55,0-1.031,0.574-1.033,1.307c-0.001,0.49,0.038,0.994,0.123,1.504c0.427,2.552,1.998,4.597,3.927,5.07	c0.322,0.078,0.639,0.107,0.95,0.107V38h3.967c0.55,0,1.031-0.574,1.033-1.307C28.001,36.202,27.962,35.699,27.877,35.187z"/><linearGradient id="xF1O28YGh78hwc5bkCpEAe" x1="25" x2="25" y1="22.4" y2="32.899" gradientTransform="matrix(1 0 0 -1 0 63.89)" gradientUnits="userSpaceOnUse"><stop offset="0" stop-color="#7363dc"/><stop offset=".342" stop-color="#7780e3"/><stop offset=".775" stop-color="#7c9eea"/></linearGradient><path fill="url(#xF1O28YGh78hwc5bkCpEAe)" d="M24.689,30.386	C23.107,31.083,22,32.66,22,34.5c0,1.422,0.673,2.675,1.703,3.5h3.264c0.55,0,1.031-0.574,1.033-1.307	c0.001-0.491-0.038-0.994-0.123-1.506C27.506,32.971,26.271,31.14,24.689,30.386z"/><linearGradient id="xF1O28YGh78hwc5bkCpEAf" x1="11.052" x2="11.052" y1="54.09" y2="32.428" gradientTransform="matrix(1 0 0 -1 0 63.89)" gradientUnits="userSpaceOnUse"><stop offset="0" stop-color="#49dff4"/><stop offset=".244" stop-color="#44d8f1"/><stop offset=".587" stop-color="#34c6ea"/><stop offset=".988" stop-color="#1ca8dd"/><stop offset="1" stop-color="#1ba7dd"/></linearGradient><path fill="url(#xF1O28YGh78hwc5bkCpEAf)" d="M10,17c0,0,0,8.609-5.592,13.845	c-0.585,0.548-0.278,1.551,0.512,1.69C7.892,33.061,13.712,32.861,18,25L10,17z"/><linearGradient id="xF1O28YGh78hwc5bkCpEAg" x1="-481.948" x2="-481.948" y1="54.09" y2="32.428" gradientTransform="rotate(180 -214.5 31.945)" gradientUnits="userSpaceOnUse"><stop offset="0" stop-color="#49dff4"/><stop offset=".244" stop-color="#44d8f1"/><stop offset=".587" stop-color="#34c6ea"/><stop offset=".988" stop-color="#1ca8dd"/><stop offset="1" stop-color="#1ba7dd"/></linearGradient><path fill="url(#xF1O28YGh78hwc5bkCpEAg)" d="M54,17c0,0,0,8.609,5.592,13.845	c0.585,0.548,0.278,1.551-0.512,1.69C56.108,33.061,50.288,32.861,46,25L54,17z"/><linearGradient id="xF1O28YGh78hwc5bkCpEAh" x1="17.5" x2="17.5" y1="65.765" y2="45.081" gradientTransform="matrix(1 0 0 -1 0 63.89)" gradientUnits="userSpaceOnUse"><stop offset="0" stop-color="#49dff4"/><stop offset=".244" stop-color="#44d8f1"/><stop offset=".587" stop-color="#34c6ea"/><stop offset=".988" stop-color="#1ca8dd"/><stop offset="1" stop-color="#1ba7dd"/></linearGradient><circle cx="17.5" cy="12.5" r="7.5" fill="url(#xF1O28YGh78hwc5bkCpEAh)"/><linearGradient id="xF1O28YGh78hwc5bkCpEAi" x1="46.5" x2="46.5" y1="65.765" y2="45.081" gradientTransform="matrix(1 0 0 -1 0 63.89)" gradientUnits="userSpaceOnUse"><stop offset="0" stop-color="#49dff4"/><stop offset=".244" stop-color="#44d8f1"/><stop offset=".587" stop-color="#34c6ea"/><stop offset=".988" stop-color="#1ca8dd"/><stop offset="1" stop-color="#1ba7dd"/></linearGradient><circle cx="46.5" cy="12.5" r="7.5" fill="url(#xF1O28YGh78hwc5bkCpEAi)"/><linearGradient id="xF1O28YGh78hwc5bkCpEAj" x1="32" x2="32" y1="-151.213" y2="-154.065" gradientTransform="translate(0 198.22)" gradientUnits="userSpaceOnUse"><stop offset="0" stop-color="#ff9757"/><stop offset="1" stop-color="#ffb65b"/><stop offset="1" stop-color="#ffb65b"/></linearGradient><ellipse cx="32" cy="46" fill="url(#xF1O28YGh78hwc5bkCpEAj)" rx="2" ry="1"/><linearGradient id="xF1O28YGh78hwc5bkCpEAk" x1="32" x2="32" y1="-147.809" y2="-144.957" gradientTransform="translate(0 198.22)" gradientUnits="userSpaceOnUse"><stop offset=".122" stop-color="#5e6d7b"/><stop offset=".191" stop-color="#5d6b79"/><stop offset="1" stop-color="#515c69"/></linearGradient><path fill="url(#xF1O28YGh78hwc5bkCpEAk)" d="M36,52h-8c-0.552,0-1-0.448-1-1l0,0	c0-0.552,0.448-1,1-1h8c0.552,0,1,0.448,1,1l0,0C37,51.552,36.552,52,36,52z"/><linearGradient id="xF1O28YGh78hwc5bkCpEAl" x1="-506.707" x2="-506.707" y1="32.301" y2="35.153" gradientTransform="rotate(180 -242.236 31.945)" gradientUnits="userSpaceOnUse"><stop offset=".122" stop-color="#5e6d7b"/><stop offset=".191" stop-color="#5d6b79"/><stop offset="1" stop-color="#515c69"/></linearGradient><path fill="url(#xF1O28YGh78hwc5bkCpEAl)" d="M23.95,30.117	c0.962,0.236,1.835,0.864,2.521,1.749C26.329,31.944,26.174,32,26,32h-7.973C18.01,31.767,18,31.535,18,31.307	C18.002,30.574,18.483,30,19.033,30H23v0.01C23.311,30.01,23.628,30.038,23.95,30.117z"/><linearGradient id="xF1O28YGh78hwc5bkCpEAm" x1="45.802" x2="45.802" y1="38.89" y2="57.905" gradientTransform="matrix(1 0 0 -1 0 63.89)" gradientUnits="userSpaceOnUse"><stop offset="0" stop-color="#ff5841"/><stop offset="1" stop-color="#fc5475"/></linearGradient><path fill="url(#xF1O28YGh78hwc5bkCpEAm)" d="M37,9l2.674-2.139	c1.38-1.104,3.322-1.172,4.776-0.165l8.431,5.837c1.291,0.894,1.939,2.46,1.659,4.004L53,25L37,9z"/><linearGradient id="xF1O28YGh78hwc5bkCpEAn" x1="-516.198" x2="-516.198" y1="38.89" y2="57.905" gradientTransform="rotate(180 -249.198 31.945)" gradientUnits="userSpaceOnUse"><stop offset="0" stop-color="#ff5841"/><stop offset="1" stop-color="#fc5475"/></linearGradient><path fill="url(#xF1O28YGh78hwc5bkCpEAn)" d="M26.603,9L23.93,6.861	c-1.38-1.104-3.322-1.172-4.776-0.165l-8.431,5.837c-1.291,0.894-1.939,2.46-1.659,4.004L10.603,25L26.603,9z"/><linearGradient id="xF1O28YGh78hwc5bkCpEAo" x1="43.001" x2="43.001" y1="22.257" y2="33.256" gradientTransform="matrix(1 0 0 -1 0 63.89)" gradientUnits="userSpaceOnUse"><stop offset="0" stop-color="#7363dc"/><stop offset=".342" stop-color="#7780e3"/><stop offset=".775" stop-color="#7c9eea"/></linearGradient><path fill="url(#xF1O28YGh78hwc5bkCpEAo)" d="M44.967,30h-2.623	C40.928,30.995,40,32.638,40,34.5c0,1.319,0.465,2.529,1.24,3.477c0.234-0.012,0.47-0.036,0.711-0.095	c1.929-0.474,3.5-2.518,3.927-5.07c0.085-0.51,0.124-1.014,0.123-1.504C45.998,30.574,45.517,30,44.967,30z"/><linearGradient id="xF1O28YGh78hwc5bkCpEAp" x1="41.764" x2="41.764" y1="32.301" y2="35.153" gradientTransform="matrix(1 0 0 -1 0 63.89)" gradientUnits="userSpaceOnUse"><stop offset=".122" stop-color="#5e6d7b"/><stop offset=".191" stop-color="#5d6b79"/><stop offset="1" stop-color="#515c69"/></linearGradient><path fill="url(#xF1O28YGh78hwc5bkCpEAp)" d="M40.05,30.117	c-0.962,0.236-1.835,0.864-2.521,1.749C37.671,31.944,37.826,32,38,32h7.973C45.99,31.767,46,31.535,46,31.307	C45.998,30.574,45.517,30,44.967,30H41v0.01C40.689,30.01,40.372,30.038,40.05,30.117z"/><linearGradient id="xF1O28YGh78hwc5bkCpEAq" x1="32.055" x2="32.055" y1="57.89" y2="14.654" gradientTransform="matrix(1 0 0 -1 0 63.89)" gradientUnits="userSpaceOnUse"><stop offset="0" stop-color="#49dff4"/><stop offset=".244" stop-color="#44d8f1"/><stop offset=".587" stop-color="#34c6ea"/><stop offset=".988" stop-color="#1ca8dd"/><stop offset="1" stop-color="#1ba7dd"/></linearGradient><path fill="url(#xF1O28YGh78hwc5bkCpEAq)" d="M32,6.013C32,6.009,32,6,32,6	c-0.105,0-0.209,0.005-0.314,0.007C31.581,6.005,31.478,6,31.373,6c0,0,0,0.009,0,0.013c-8.342,0.184-16.215,6.221-19.522,14.544	c-1.722,4.049-3.314,10.05-3.74,18.763c-0.053,1.078,1.41,1.474,1.893,0.509c0.444-0.886,0.957-1.886,1.517-2.948	c0.843,2.978,2.158,7.401,3.146,10.696c0.309,1.031,1.805,0.909,1.948-0.158l2.905-21.627c0.11-0.82,1.113-1.159,1.698-0.574	l1.637,1.637c0.526,0.526,1.421,0.314,1.656-0.391l0.77-2.309c0.275-0.825,1.4-0.93,1.823-0.169l7.862,14.151	c0.411,0.74,1.499,0.666,1.806-0.123l4.901-12.602c0.369-0.949,1.754-0.804,1.919,0.201l3.728,22.766	c0.157,1.067,1.658,1.169,1.951,0.13c1.012-3.591,2.397-8.532,3.26-11.739c0.583,1.103,1.116,2.142,1.575,3.058	c0.483,0.965,1.945,0.57,1.893-0.509C54.967,18.238,44,6.013,32,6.013z"/><linearGradient id="xF1O28YGh78hwc5bkCpEAr" x1="33" x2="33" y1="58.07" y2="48.477" gradientTransform="matrix(1 0 0 -1 0 63.89)" gradientUnits="userSpaceOnUse"><stop offset="0" stop-color="#49dff4"/><stop offset=".244" stop-color="#44d8f1"/><stop offset=".587" stop-color="#34c6ea"/><stop offset=".988" stop-color="#1ca8dd"/><stop offset="1" stop-color="#1ba7dd"/></linearGradient><circle cx="33" cy="11" r="2" fill="url(#xF1O28YGh78hwc5bkCpEAr)"/><linearGradient id="xF1O28YGh78hwc5bkCpEAs" x1="20.14" x2="20.14" y1="65.226" y2="34.05" gradientTransform="matrix(1 0 0 -1 0 63.89)" gradientUnits="userSpaceOnUse"><stop offset="0" stop-color="#49dff4"/><stop offset=".244" stop-color="#44d8f1"/><stop offset=".587" stop-color="#34c6ea"/><stop offset=".988" stop-color="#1ca8dd"/><stop offset="1" stop-color="#1ba7dd"/></linearGradient><path fill="url(#xF1O28YGh78hwc5bkCpEAs)" d="M19.5,13H27c1.105,0,2-0.895,2-2 s-0.895-2-2-2h-5.433c-4.257,2.589-7.775,6.673-9.715,11.557c-0.193,0.455-0.385,0.938-0.573,1.443H22c1.657,0,3.001-1.344,3-3.001 C24.999,17.342,23.656,16,22,16h-2.5c-0.828,0-1.5-0.672-1.5-1.5S18.672,13,19.5,13z"/></svg>