<svg xmlns="http://www.w3.org/2000/svg"  viewBox="0 0 64 64" width="64px" height="64px"><radialGradient id="w3UqJ3mMgg6L~zub7qBMca" cx="31.596" cy="27.894" r="81.748" gradientTransform="matrix(1 0 0 -1 0 66)" gradientUnits="userSpaceOnUse"><stop offset="0" stop-color="#afeeff"/><stop offset=".193" stop-color="#bbf1ff"/><stop offset=".703" stop-color="#d7f8ff"/><stop offset="1" stop-color="#e1faff"/></radialGradient><path fill="url(#w3UqJ3mMgg6L~zub7qBMca)" d="M59.12,16H61c1.85,0,3.32-1.69,2.94-3.6c-0.29-1.43-1.63-2.4-3.08-2.4H52.5	C51.67,10,51,9.33,51,8.5S51.67,7,52.5,7H57c1.657,0,3-1.343,3-3s-1.343-3-3-3H7C5.343,1,4,2.343,4,4s1.343,3,3,3h6.34	C14.8,7,16.08,8.2,16,9.65c-0.04,0.63-0.31,1.2-0.73,1.62C14.82,11.72,14.19,12,13.5,12H3.13c-1.45,0-2.79,0.97-3.07,2.4	C-0.32,16.31,1.15,18,3,18h6.5c1.38,0,2.5,1.12,2.5,2.5c0,0.69-0.28,1.32-0.73,1.77C10.82,22.72,10.19,23,9.5,23H6.17	C4.55,23,3.09,24.22,3,25.84C2.91,27.57,4.29,29,6,29h1.5c1.38,0,2.5,1.12,2.5,2.5c0,0.69-0.28,1.32-0.73,1.77	C8.82,33.72,8.19,34,7.5,34H3.64c-1.3,0-2.5,0.94-2.63,2.24C0.86,37.74,2.03,39,3.5,39H7c1.66,0,3,1.34,3,3	c0,0.83-0.34,1.58-0.88,2.12C8.58,44.66,7.83,45,7,45H4.16C2.54,45,1.09,46.22,1,47.84C0.92,49.58,2.29,51,4,51h3.36	c1.3,0,2.5,0.94,2.63,2.24C10.14,54.74,8.97,56,7.5,56H6.16C4.54,56,3.09,57.22,3,58.84C2.92,60.58,4.29,62,6,62h53.84	c1.62,0,3.07-1.22,3.16-2.84c0.08-1.74-1.29-3.16-3-3.16H49.64c-1.3,0-2.5-0.94-2.63-2.24C46.86,52.26,48.03,51,49.5,51h5.34	c1.62,0,3.07-1.22,3.16-2.84c0.08-1.74-1.29-3.16-3-3.16h-2c-0.83,0-1.58-0.34-2.12-0.88C50.34,43.58,50,42.83,50,42	c0-1.66,1.34-3,3-3h3c2.209,0,4-1.791,4-4s-1.791-4-4-4h-3c-1.66,0-3-1.34-3-3c0-0.83,0.34-1.58,0.88-2.12	C51.42,25.34,52.17,25,53,25h7.41c1.14,0,2.2-0.72,2.5-1.82C63.35,21.52,62.1,20,60.5,20H59c-1.21,0-2.18-1.09-1.97-2.34	C57.19,16.67,58.12,16,59.12,16z"/><linearGradient id="w3UqJ3mMgg6L~zub7qBMcb" x1="32.288" x2="32.288" y1="-18.447" y2="13.744" gradientTransform="matrix(1 0 0 -1 0 66)" gradientUnits="userSpaceOnUse"><stop offset="0" stop-color="#feaa53"/><stop offset=".612" stop-color="#ffcd49"/><stop offset="1" stop-color="#ffde44"/></linearGradient><path fill="url(#w3UqJ3mMgg6L~zub7qBMcb)" d="M47.967,23.074c2.061-6.172-1.271-12.846-7.443-14.907L38.347,7.44	c-7.828-2.614-16.372,1.652-18.986,9.48l-0.589,1.763c-0.253,0.756-0.769,1.386-1.433,1.827C16.532,21.045,16,21.959,16,23	c0,0.546,0.146,1.058,0.402,1.499c0.334,0.576,0.427,1.26,0.36,1.922L16,34l7.652,2.878l-1.499,20.979	C22.07,59.015,22.987,60,24.148,60h16.626c1.189,0,2.115-1.031,1.989-2.213l-0.623-5.819c-0.287-2.676-0.291-5.365-0.039-8.029	C43.746,43.654,45,42.227,45,40.5c0-1.292-0.709-2.409-1.751-3.015c0.217-0.823,0.453-1.641,0.723-2.45L47.967,23.074z"/><linearGradient id="w3UqJ3mMgg6L~zub7qBMcc" x1="13.756" x2="24.522" y1="38.499" y2="35.308" gradientTransform="matrix(1 0 0 -1 0 66)" gradientUnits="userSpaceOnUse"><stop offset="0" stop-color="#fff"/><stop offset=".668" stop-color="#fdffff"/><stop offset=".908" stop-color="#f6fdff"/><stop offset="1" stop-color="#f1fcff"/></linearGradient><circle cx="20.5" cy="29.5" r="6.5" fill="url(#w3UqJ3mMgg6L~zub7qBMcc)"/><linearGradient id="w3UqJ3mMgg6L~zub7qBMcd" x1="21.5" x2="21.5" y1="-7.596" y2="27.672" gradientTransform="matrix(1 0 0 -1 0 66)" gradientUnits="userSpaceOnUse"><stop offset="0" stop-color="#feaa53"/><stop offset=".612" stop-color="#ffcd49"/><stop offset="1" stop-color="#ffde44"/></linearGradient><path fill="url(#w3UqJ3mMgg6L~zub7qBMcd)" d="M26,39h-9c-1.657,0-3-1.343-3-3l0,0c0-1.657,1.343-3,3-3h9c1.657,0,3,1.343,3,3l0,0	C29,37.657,27.657,39,26,39z"/><circle cx="30.5" cy="30.5" r="6.5" fill="#fff"/><linearGradient id="w3UqJ3mMgg6L~zub7qBMce" x1="32.5" x2="32.5" y1="33" y2="36" gradientTransform="matrix(1 0 0 -1 0 66)" gradientUnits="userSpaceOnUse"><stop offset=".122" stop-color="#5e6d7b"/><stop offset=".191" stop-color="#5d6b79"/><stop offset="1" stop-color="#515c69"/></linearGradient><circle cx="32.5" cy="31.5" r="1.5" fill="url(#w3UqJ3mMgg6L~zub7qBMce)"/><linearGradient id="w3UqJ3mMgg6L~zub7qBMcf" x1="19.5" x2="19.5" y1="35" y2="38" gradientTransform="matrix(1 0 0 -1 0 66)" gradientUnits="userSpaceOnUse"><stop offset=".122" stop-color="#5e6d7b"/><stop offset=".191" stop-color="#5d6b79"/><stop offset="1" stop-color="#515c69"/></linearGradient><circle cx="19.5" cy="29.5" r="1.5" fill="url(#w3UqJ3mMgg6L~zub7qBMcf)"/><linearGradient id="w3UqJ3mMgg6L~zub7qBMcg" x1="12" x2="35.153" y1="18.581" y2="18.581" gradientTransform="matrix(1 0 0 -1 0 66)" gradientUnits="userSpaceOnUse"><stop offset="0" stop-color="#fbaa5e"/><stop offset="1" stop-color="#ffbb70"/></linearGradient><path fill="url(#w3UqJ3mMgg6L~zub7qBMcg)" d="M35,51c-0.68,4.07-4.5,6-7,6c-2.47,0-6,0-8-4c-0.61,0-1.23-0.38-1.61-0.9	c-0.03-0.04-0.05-0.08-0.07-0.12C18.12,51.68,18,51.34,18,51c-0.01,0-0.03,0-0.04-0.01c-0.18-0.03-0.34-0.06-0.51-0.1	C14.21,50.2,12,48.55,12,47c0-0.64,0.39-1.24,1.05-1.78C13.59,37.33,19.13,36.71,26,39C32,41,36,45,35,51z"/><linearGradient id="w3UqJ3mMgg6L~zub7qBMch" x1="39" x2="48" y1="31.5" y2="31.5" gradientTransform="matrix(1 0 0 -1 0 66)" gradientUnits="userSpaceOnUse"><stop offset=".122" stop-color="#5e6d7b"/><stop offset=".191" stop-color="#5d6b79"/><stop offset="1" stop-color="#515c69"/></linearGradient><path fill="url(#w3UqJ3mMgg6L~zub7qBMch)" d="M39.071,36.243l3-5c0.142-0.237,0.449-0.314,0.686-0.172c0.13,0.078,0.212,0.208,0.236,0.347	l1,6l-0.922-0.175l3-5c0.142-0.237,0.449-0.314,0.686-0.172c0.125,0.075,0.206,0.198,0.233,0.331l1,5	c0.054,0.271-0.121,0.534-0.392,0.588s-0.534-0.121-0.588-0.392l-1-5l0.919,0.159l-3,5c-0.142,0.237-0.449,0.314-0.686,0.172	c-0.13-0.078-0.212-0.208-0.236-0.347l-1-6l0.922,0.175l-3,5c-0.142,0.237-0.449,0.314-0.686,0.172	C39.006,36.787,38.929,36.479,39.071,36.243z"/><linearGradient id="w3UqJ3mMgg6L~zub7qBMci" x1="17.96" x2="29.003" y1="16.011" y2="16.011" gradientTransform="matrix(1 0 0 -1 0 66)" gradientUnits="userSpaceOnUse"><stop offset=".122" stop-color="#5e6d7b"/><stop offset=".191" stop-color="#5d6b79"/><stop offset="1" stop-color="#515c69"/></linearGradient><path fill="url(#w3UqJ3mMgg6L~zub7qBMci)" d="M28.82,48.88c-0.01,0.02-0.02,0.03-0.04,0.04c-2.77,1.84-7.25,2.9-10.46,3.06	C18.12,51.68,18,51.34,18,51c-0.01,0-0.03,0-0.04-0.01c3.03-0.09,7.42-1.07,10.13-2.83c0.05-0.02,0.09-0.05,0.13-0.08	c0.23-0.15,0.54-0.09,0.7,0.14C29.06,48.43,29.02,48.72,28.82,48.88z"/><linearGradient id="w3UqJ3mMgg6L~zub7qBMcj" x1="27" x2="30" y1="17.5" y2="17.5" gradientTransform="matrix(1 0 0 -1 0 66)" gradientUnits="userSpaceOnUse"><stop offset=".122" stop-color="#5e6d7b"/><stop offset=".191" stop-color="#5d6b79"/><stop offset="1" stop-color="#515c69"/></linearGradient><path fill="url(#w3UqJ3mMgg6L~zub7qBMcj)" d="M29.5,50c-0.276,0-0.5-0.224-0.5-0.5c0-0.729-0.771-1.5-1.5-1.5c-0.276,0-0.5-0.224-0.5-0.5	s0.224-0.5,0.5-0.5c1.285,0,2.5,1.215,2.5,2.5C30,49.776,29.776,50,29.5,50z"/><linearGradient id="w3UqJ3mMgg6L~zub7qBMck" x1="35.515" x2="35.515" y1="63.13" y2="55" gradientTransform="matrix(1 0 0 -1 0 66)" gradientUnits="userSpaceOnUse"><stop offset=".122" stop-color="#5e6d7b"/><stop offset=".191" stop-color="#5d6b79"/><stop offset="1" stop-color="#515c69"/></linearGradient><path fill="url(#w3UqJ3mMgg6L~zub7qBMck)" d="M41,10.5c0,0.28-0.22,0.5-0.5,0.5S40,10.78,40,10.5c0-0.95-0.08-1.82-0.24-2.58	c-0.23-1.14-0.63-2.06-1.18-2.73c-0.27-0.34-0.59-0.61-0.94-0.81c-0.54-0.34-1.18-0.51-1.89-0.51c-2.04,0-4.19,1.46-4.65,3.02	c-0.36,0.06-0.72,0.13-1.07,0.22c0.29-2.2,2.98-4.24,5.72-4.24c1.25,0,2.35,0.43,3.21,1.26c0.16,0.15,0.32,0.32,0.46,0.5	c0.13,0.17,0.25,0.34,0.37,0.53c0.52,0.84,0.87,1.88,1.05,3.13C40.95,8.97,41,9.7,41,10.5z"/><linearGradient id="w3UqJ3mMgg6L~zub7qBMcl" x1="39.775" x2="39.775" y1="61.88" y2="52" gradientTransform="matrix(1 0 0 -1 0 66)" gradientUnits="userSpaceOnUse"><stop offset=".122" stop-color="#5e6d7b"/><stop offset=".191" stop-color="#5d6b79"/><stop offset="1" stop-color="#515c69"/></linearGradient><path fill="url(#w3UqJ3mMgg6L~zub7qBMcl)" d="M45,13.5c0,0.28-0.22,0.5-0.5,0.5S44,13.78,44,13.5c0-1.41-0.12-2.66-0.36-3.73	c-0.25-1.19-0.65-2.17-1.19-2.93c-0.84-1.17-1.84-1.58-2.66-1.68c-0.18-0.03-0.35-0.04-0.51-0.04c-0.23,0-0.47,0.02-0.7,0.07	c-1.14,0.18-2.23,0.83-2.9,1.63c-0.37-0.06-0.75-0.1-1.13-0.12c0.63-1.05,1.77-1.92,3.09-2.32c0.43-0.14,0.87-0.22,1.32-0.25	c0.11-0.01,0.21-0.01,0.32-0.01c1.12,0,2.72,0.37,3.98,2.14c0.8,1.11,1.32,2.61,1.56,4.47C44.94,11.58,45,12.5,45,13.5z"/></svg>