<svg xmlns="http://www.w3.org/2000/svg"  viewBox="0 0 64 64" width="64px" height="64px"><radialGradient id="Fioy7lbrmv2RQsDfmq9zua" cx="-2516" cy="1703.5" r="30.775" gradientTransform="matrix(-1 0 0 1 -2484 -1671)" gradientUnits="userSpaceOnUse"><stop offset="0" stop-color="#f4e9c3"/><stop offset=".219" stop-color="#f8eecd"/><stop offset=".644" stop-color="#fdf4dc"/><stop offset="1" stop-color="#fff6e1"/></radialGradient><path fill="url(#Fioy7lbrmv2RQsDfmq9zua)" d="M0,40.017L0,40.017C0.009,42.772,2.245,45,5,45h3c2.761,0,5,2.238,5,5l0,0	c0,2.762-2.238,5-5,5H7.434C5.52,55,4,56.52,4,58.395l0,0C4,60.386,5.614,62,7.605,62H56.5c1.926,0,3.49-1.556,3.5-3.483V58.5	c0.01-1.93-1.552-3.5-3.483-3.5H56c-2.209,0-4-1.791-4-4l0,0c0-2.209,1.791-4,4-4h3c2.761,0,5-2.239,5-5l0,0c0-2.761-2.239-5-5-5h-3	c-1.657,0-3-1.343-3-3l0,0c0-1.657,1.343-3,3-3h2.5c3.038,0,5.5-2.462,5.5-5.5l0,0c0-3.038-2.462-5.5-5.5-5.5h-2.904	c-2.209,0-4-1.791-4-4l0,0c0-2.209,1.791-4,4-4H58.5c2.485,0,4.5-2.015,4.5-4.5l0,0C63,5.015,60.985,3,58.5,3H31H5	C2.791,3,1,4.791,1,7l0,0c0,2.209,1.791,4,4,4h12.5c1.933,0,3.5,1.567,3.5,3.5l0,0c0,1.933-1.567,3.5-3.5,3.5H5	c-2.209,0-4,1.791-4,4l0,0c0,2.209,1.791,4,4,4h1.5c2.485,0,4.5,2.015,4.5,4.5l0,0c0,2.485-2.015,4.5-4.5,4.5H5	C2.232,35-0.009,37.249,0,40.017z"/><linearGradient id="Fioy7lbrmv2RQsDfmq9zub" x1="7.506" x2="19.059" y1="10.296" y2="20.317" gradientUnits="userSpaceOnUse"><stop offset="0" stop-color="#c6effd"/><stop offset=".375" stop-color="#b7ecfd"/><stop offset="1" stop-color="#95e6fd"/></linearGradient><circle cx="14" cy="15.929" r="9" fill="url(#Fioy7lbrmv2RQsDfmq9zub)"/><linearGradient id="Fioy7lbrmv2RQsDfmq9zuc" x1="56.999" x2="44.148" y1="9.857" y2="21.005" gradientUnits="userSpaceOnUse"><stop offset="0" stop-color="#c6effd"/><stop offset=".375" stop-color="#b7ecfd"/><stop offset="1" stop-color="#95e6fd"/></linearGradient><circle cx="50" cy="15.929" r="9" fill="url(#Fioy7lbrmv2RQsDfmq9zuc)"/><linearGradient id="Fioy7lbrmv2RQsDfmq9zud" x1="21.84" x2="21.84" y1="38.851" y2="51.903" gradientUnits="userSpaceOnUse"><stop offset="0" stop-color="#42c6ee"/><stop offset=".48" stop-color="#3bc3ed"/><stop offset="1" stop-color="#2ebeea"/></linearGradient><path fill="url(#Fioy7lbrmv2RQsDfmq9zud)" d="M23.139,38.938c-2.598,1.299-5.196,5.196-5.196,9.094c0,2.152,1.745,3.897,3.897,3.897	s3.897-1.745,3.897-3.897v-9.094C25.737,38.938,25.088,38.938,23.139,38.938z"/><linearGradient id="Fioy7lbrmv2RQsDfmq9zue" x1="42" x2="42" y1="39.17" y2="50.626" gradientUnits="userSpaceOnUse"><stop offset="0" stop-color="#42c6ee"/><stop offset=".48" stop-color="#3bc3ed"/><stop offset="1" stop-color="#2ebeea"/></linearGradient><path fill="url(#Fioy7lbrmv2RQsDfmq9zue)" d="M40.701,38.938c2.598,1.299,5.196,5.196,5.196,9.094c0,2.152-1.745,3.897-3.897,3.897	s-3.897-1.745-3.897-3.897v-9.094C38.103,38.938,38.752,38.938,40.701,38.938z"/><linearGradient id="Fioy7lbrmv2RQsDfmq9zuf" x1="32" x2="32" y1="57.043" y2="39.869" gradientUnits="userSpaceOnUse"><stop offset="0" stop-color="#67ccf0"/><stop offset=".232" stop-color="#70d1f2"/><stop offset=".644" stop-color="#89ddf8"/><stop offset="1" stop-color="#a1e9fd"/></linearGradient><path fill="url(#Fioy7lbrmv2RQsDfmq9zuf)" d="M42,48.469c0,2.73-0.713,5.237-1.9,7.298C39.65,56.541,38.837,57,37.963,57H26.037	c-0.875,0-1.688-0.459-2.137-1.234c-1.188-2.061-1.9-4.567-1.9-7.298c0-2.402,0.55-4.659,1.5-6.563C25.263,38.362,28.4,36,32,36	s6.737,2.362,8.5,5.906C41.45,43.809,42,46.067,42,48.469z"/><circle cx="15" cy="18" r="5" fill="#fff"/><path fill="#fff" d="M39,44.563c0,4.448-3.136,8.063-7,8.063s-7-3.615-7-8.063c0-0.336,0.014-0.672,0.07-0.994	C25.476,39.591,28.43,36.5,32,36.5s6.524,3.091,6.93,7.068C38.986,43.891,39,44.227,39,44.563z"/><circle cx="49" cy="18" r="5" fill="#fff"/><linearGradient id="Fioy7lbrmv2RQsDfmq9zug" x1="32" x2="32" y1="41.723" y2="11.969" gradientUnits="userSpaceOnUse"><stop offset="0" stop-color="#67ccf0"/><stop offset=".232" stop-color="#70d1f2"/><stop offset=".644" stop-color="#89ddf8"/><stop offset="1" stop-color="#a1e9fd"/></linearGradient><path fill="url(#Fioy7lbrmv2RQsDfmq9zug)" d="M50,28.957C50,21.033,44.857,12,32,12s-18,9.033-18,16.957S21.349,42,32,42	S50,36.88,50,28.957z"/><linearGradient id="Fioy7lbrmv2RQsDfmq9zuh" x1="32" x2="32" y1="37.638" y2="24.862" gradientUnits="userSpaceOnUse"><stop offset="0" stop-color="#155cde"/><stop offset=".201" stop-color="#1868e0"/><stop offset=".564" stop-color="#2187e7"/><stop offset="1" stop-color="#2eb5f0"/></linearGradient><path fill="url(#Fioy7lbrmv2RQsDfmq9zuh)" d="M36,31.25c0-2.761-1.791-6.25-4-6.25s-4,3.489-4,6.25S29.791,35,32,35S36,34.011,36,31.25z"/><linearGradient id="Fioy7lbrmv2RQsDfmq9zui" x1="23.964" x2="23.964" y1="26.692" y2="31.189" gradientUnits="userSpaceOnUse"><stop offset=".122" stop-color="#5e6d7b"/><stop offset=".191" stop-color="#5d6b79"/><stop offset="1" stop-color="#515c69"/></linearGradient><path fill="url(#Fioy7lbrmv2RQsDfmq9zui)" d="M21.714,30.714c-0.315,0-0.59-0.231-0.636-0.553c-0.05-0.351,0.194-0.676,0.545-0.726	l4.5-0.643c0.347-0.048,0.678,0.193,0.728,0.546c0.05,0.351-0.194,0.676-0.545,0.726l-4.5,0.643	C21.775,30.712,21.744,30.714,21.714,30.714z"/><linearGradient id="Fioy7lbrmv2RQsDfmq9zuj" x1="40.036" x2="40.036" y1="26.692" y2="31.189" gradientUnits="userSpaceOnUse"><stop offset=".122" stop-color="#5e6d7b"/><stop offset=".191" stop-color="#5d6b79"/><stop offset="1" stop-color="#515c69"/></linearGradient><path fill="url(#Fioy7lbrmv2RQsDfmq9zuj)" d="M42.286,30.714c-0.03,0-0.06-0.003-0.091-0.006l-4.5-0.643	c-0.351-0.05-0.595-0.375-0.545-0.726c0.05-0.351,0.375-0.589,0.728-0.546l4.5,0.643c0.351,0.05,0.595,0.375,0.545,0.726	C42.876,30.483,42.602,30.714,42.286,30.714z"/><linearGradient id="Fioy7lbrmv2RQsDfmq9zuk" x1="31.999" x2="31.999" y1="33.553" y2="37.511" gradientUnits="userSpaceOnUse"><stop offset=".122" stop-color="#5e6d7b"/><stop offset=".191" stop-color="#5d6b79"/><stop offset="1" stop-color="#515c69"/></linearGradient><path fill="url(#Fioy7lbrmv2RQsDfmq9zuk)" d="M32,37.99c-2,0-3.011-0.735-3.806-1.528c-0.26-0.26-0.26-0.683,0-0.943	c0.26-0.26,0.683-0.26,0.943,0c0.6,0.6,1.271,1.138,2.863,1.138s2.263-0.537,2.862-1.139c0.26-0.26,0.683-0.26,0.943,0	c0.26,0.26,0.26,0.683,0,0.943C35.011,37.255,34.001,37.99,32,37.99z"/><linearGradient id="Fioy7lbrmv2RQsDfmq9zul" x1="27.5" x2="27.5" y1="46.872" y2="56.843" gradientUnits="userSpaceOnUse"><stop offset="0" stop-color="#c6effd"/><stop offset=".375" stop-color="#b7ecfd"/><stop offset="1" stop-color="#95e6fd"/></linearGradient><path fill="url(#Fioy7lbrmv2RQsDfmq9zul)" d="M32,52.625c0,1.147-0.274,2.213-0.746,3.099C30.825,56.528,29.938,57,29.007,57h-3.012	c-0.931,0-1.819-0.472-2.247-1.276C23.274,54.838,23,53.772,23,52.625C23,49.512,25.019,47,27.5,47S32,49.512,32,52.625z"/><linearGradient id="Fioy7lbrmv2RQsDfmq9zum" x1="36.5" x2="36.5" y1="47.085" y2="56.987" gradientUnits="userSpaceOnUse"><stop offset="0" stop-color="#c6effd"/><stop offset=".375" stop-color="#b7ecfd"/><stop offset="1" stop-color="#95e6fd"/></linearGradient><path fill="url(#Fioy7lbrmv2RQsDfmq9zum)" d="M41,52.625c0,1.147-0.274,2.213-0.746,3.099C39.825,56.528,38.938,57,38.007,57h-3.012	c-0.931,0-1.819-0.472-2.247-1.276C32.274,54.838,32,53.772,32,52.625C32,49.512,34.019,47,36.5,47S41,49.512,41,52.625z"/></svg>