<svg xmlns="http://www.w3.org/2000/svg"  viewBox="0 0 64 64" width="64px" height="64px" baseProfile="basic"><radialGradient id="9hApbBpEfFM-7FC3korxZa" cx="32.128" cy="732.594" r="36.865" gradientTransform="translate(0 -702)" gradientUnits="userSpaceOnUse"><stop offset="0" stop-color="#f7e9c2"/><stop offset=".219" stop-color="#fbeecc"/><stop offset=".644" stop-color="#fff3db"/><stop offset="1" stop-color="#fff5e0"/></radialGradient><path fill="url(#9hApbBpEfFM-7FC3korxZa)" d="M59,39h-1.5c-0.828,0-1.5-0.671-1.5-1.5s0.672-1.5,1.5-1.5h1.349	c1.922,0,3.69-1.287,4.068-3.172C63.433,30.257,61.48,28,59,28h-0.5c-0.828,0-1.5-0.672-1.5-1.5l0,0c0-0.828,0.672-1.5,1.5-1.5	h0.285c2.499,0,4.776-1.738,5.154-4.209c0.472-3.078-1.866-5.733-4.841-5.79c-0.916-0.018-1.788-0.564-2.025-1.449	C56.715,12.21,57.716,11,59,11h0.5c2.148,0,3.844-1.935,3.44-4.158C62.633,5.156,61.055,4,59.341,4C50.603,4,13.398,4,4.66,4	c-1.714,0-3.293,1.156-3.6,2.842C0.656,9.065,2.352,11,4.5,11h0.406c0.921,0,1.795,0.575,2.025,1.467	C7.276,13.8,6.279,14.999,5.002,15c-1.959,0.002-3.821,1.082-4.57,2.892C-1.07,21.524,1.559,25,5,25h0.5C6.328,25,7,25.672,7,26.5	l0,0C7,27.328,6.328,28,5.5,28H5.151c-1.923,0-3.69,1.287-4.068,3.173C0.568,33.744,2.521,36,5,36h0.5C6.328,36,7,36.671,7,37.5	S6.328,39,5.5,39H5.215c-2.499,0-4.776,1.739-5.154,4.209c-0.472,3.078,1.866,5.732,4.84,5.79c0.917,0.018,1.789,0.564,2.025,1.45	C7.285,51.79,6.284,53,5,53H4.5c-2.148,0-3.844,1.935-3.44,4.158C1.367,58.844,2.945,60,4.659,60c8.738,0,45.943,0,54.681,0	c1.714,0,3.293-1.156,3.599-2.842C63.344,54.935,61.648,53,59.5,53h-0.406c-0.922,0-1.797-0.576-2.026-1.469	c-0.342-1.333,0.653-2.528,1.928-2.531c1.959-0.004,3.823-1.082,4.572-2.893C65.07,42.475,62.441,39,59,39z"/><path fill="#5b4d42" d="M18,52l5.128-2.648c0.532-0.275,0.867-0.824,0.867-1.423L24,32.335L18,36V52z"/><path fill="#887260" d="M18,52l-4.999-2.581c-0.612-0.316-0.996-0.947-0.996-1.635L12,32.335L18,36V52z"/><path fill="#6f6f6f" d="M18,45l6.136-3.01c0.525-0.258,0.858-0.792,0.859-1.377L25,25l-7,4V45z"/><path fill="#5b4d42" d="M38,44l5.114-2.641c0.541-0.279,0.881-0.837,0.881-1.446L44,24.335L38,28V44z"/><path fill="#887260" d="M38,44l-5.102-2.635c-0.548-0.283-0.893-0.849-0.893-1.466L32,24.335L38,28V44z"/><path fill="#5b4d42" d="M27,57l5.128-2.648c0.532-0.275,0.867-0.824,0.867-1.423L33,37.335L27,41V57z"/><path fill="#887260" d="M27,57l-4.999-2.581c-0.612-0.316-0.996-0.947-0.996-1.635L21,37.335L27,41V57z"/><path fill="#5b4d42" d="M47,49l5.114-2.641c0.541-0.279,0.881-0.837,0.881-1.446L53,29.335L47,33V49z"/><path fill="#887260" d="M47,49l-5.102-2.635c-0.548-0.283-0.893-0.849-0.893-1.466L41,29.335L47,33V49z"/><polygon fill="#a3a3a3" points="47,42 40.005,38.569 40,22 47,26"/><linearGradient id="9hApbBpEfFM-7FC3korxZb" x1="37.173" x2="42.52" y1="22.117" y2="39.607" gradientUnits="userSpaceOnUse"><stop offset="0" stop-color="#a4a4a4"/><stop offset=".619" stop-color="gray"/><stop offset="1" stop-color="#6f6f6f"/><stop offset="1" stop-color="#6f6f6f"/></linearGradient><path fill="url(#9hApbBpEfFM-7FC3korxZb)" d="M27,29l0,21l6.136-3.01	c0.525-0.258,0.858-0.792,0.859-1.377l0.001-3.982L47,35.37V42l6.233-3.057c0.466-0.229,0.761-0.702,0.761-1.221l0.002-5.72L54,32	V16L27,29z"/><path fill="#a3a3a3" d="M11,21v16l0.004,0.002l0.001,3.753c0,0.499,0.284,0.954,0.732,1.173L18,45v-4.5l2.004,1.002	l0.001,4.253c0,0.499,0.284,0.954,0.732,1.173L27,50V29L11,21z"/><path fill="#e4e4e4" d="M27,29l-16-8L37.151,8.424c0.534-0.267,1.163-0.267,1.698,0L54,16L27,29z"/><polygon fill="#737373" points="23.937,27.427 23.937,36.658 19.182,39.059 19.182,23.861 31.069,17.917 31.069,23.835"/><path fill="#a3a3a3" d="M19.182,39.043L7.02,33.398c-0.557-0.258-0.913-0.816-0.913-1.43v-14.05l13.076,5.943V39.043z"/><polygon fill="#685345" points="19.198,26.218 6.106,20.227 6.106,27.578 9.047,28.943 9.047,34.339 16.257,37.654 16.257,32.288 19.198,33.653"/><path fill="#e4e4e4" d="M19.182,23.861L6.107,17.917l12.164-5.529c0.577-0.262,1.241-0.25,1.808,0.033l10.991,5.495	L19.182,23.861z"/><polygon fill="#e4e4e4" points="14.787,26.096 14.787,28.555 19.198,30.712 19.198,28.173"/><polygon fill="#e4e4e4" points="10.376,24.02 6.106,22.01 6.106,24.309 10.376,26.398"/><polygon fill="#29231f" points="8.249,23.019 6.106,22.01 6.106,24.309 8.249,25.357"/><polygon fill="#29231f" points="16.977,27.127 16.977,29.626 19.198,30.712 19.198,28.173"/><polygon fill="#d39494" points="14.187,36.711 10.712,35.114 10.712,29.528 14.225,31.215"/><polygon fill="#6f6f6f" points="30.73,30.869 27,32.725 27,29.01 30.73,27.154"/><polygon fill="#6f6f6f" points="34.423,32.676 30.693,34.532 30.693,30.816 34.423,28.961"/><polygon fill="#6f6f6f" points="34.423,36.355 30.693,38.21 30.693,34.495 34.423,32.639"/><polygon fill="#605d5d" points="50.279,30.539 46.564,32.395 46.564,28.679 50.279,26.824"/><polygon fill="#ccc" points="53.995,16.002 50.679,14.333 46.879,16.071 43.585,14.413 39.888,16.259 46.439,19.63"/><polygon fill="#ccc" points="34.98,12.848 34.978,12.847 38.641,11.017 35.325,9.348 24.489,14.556 27.821,16.233 31.466,14.413 34.744,16.063 38.269,14.507 34.976,12.85"/><polygon fill="#605d5d" points="53.958,32.378 50.243,34.234 50.243,30.519 53.958,28.663"/></svg>